<svg width="26" height="21" viewBox="0 0 26 21" fill="none" xmlns="http://www.w3.org/2000/svg">
<path d="M25.7146 7.18995C25.5825 7.37756 25.4063 7.45261 25.1421 7.45261C24.2615 7.45261 23.3808 7.45261 22.5002 7.45261C22.4121 7.45261 22.324 7.45261 22.1919 7.41508C22.0158 7.37756 21.8837 7.22747 21.9277 7.07738C21.9277 6.92729 22.0598 6.81472 22.236 6.73967C22.324 6.70215 22.4121 6.70215 22.5002 6.70215C23.3808 6.70215 24.2615 6.70215 25.1421 6.70215C25.4063 6.70215 25.5825 6.73967 25.7146 6.92729C25.7146 7.00233 25.7146 7.07738 25.7146 7.18995Z" fill="#FFFFFF"/>
<path d="M0.571411 6.9268C0.70351 6.73918 0.923675 6.70166 1.14384 6.70166C2.0245 6.70166 2.94919 6.70166 3.82985 6.70166C4.22615 6.70166 4.49035 6.96432 4.31422 7.18946C4.22615 7.30203 4.05002 7.41459 3.91792 7.41459C2.94919 7.45212 2.0245 7.41459 1.05577 7.41459C0.835609 7.41459 0.70351 7.30203 0.615444 7.18946C0.571411 7.07689 0.571411 7.00184 0.571411 6.9268Z" fill="#FFFFFF"/>
<path d="M13.1649 1.00004C16.9517 0.925018 20.3422 3.66336 20.2542 7.03939C20.1661 7.03939 20.078 7.03939 19.99 7.03939C19.3295 7.03939 18.669 7.03939 18.0085 7.03939C17.7883 7.03939 17.6122 7.03939 17.4801 7.22695C17.392 7.41451 17.4361 7.52704 17.5682 7.67709C17.8324 8.01469 17.7883 8.38981 17.4361 8.65239C17.1278 8.87746 16.6435 8.87746 16.3352 8.65239C16.027 8.42732 15.983 8.01469 16.2031 7.7146C16.3352 7.56455 16.4233 7.41451 16.2912 7.26446C16.1591 7.0769 15.983 7.0769 15.7628 7.0769C14.8821 7.0769 14.0015 7.0769 13.0768 7.0769C13.0768 7.00188 13.0768 6.92686 13.0768 6.85184C13.0768 6.17663 13.0768 5.50142 13.0768 4.7887C13.0768 4.60115 13.0328 4.4511 12.8566 4.33856C12.6365 4.26354 12.5044 4.33857 12.3282 4.41359C11.9319 4.63866 11.4916 4.60115 11.1834 4.30105C10.9192 4.03847 10.9192 3.62585 11.1834 3.36327C11.4916 3.06317 11.9319 3.02566 12.3282 3.25073C12.5044 3.36327 12.6805 3.43829 12.8566 3.32575C13.0768 3.21322 13.0768 3.06317 13.0768 2.87562C13.1649 2.27543 13.1649 1.63774 13.1649 1.00004Z" fill="#FFFFFF"/>
<path d="M12.3283 7.75161C12.3283 8.65189 12.3283 9.55216 12.3283 10.4149C12.3283 10.4899 12.3283 10.565 12.3283 10.64C12.3724 10.9026 12.6806 11.0526 12.9448 10.9026C12.9888 10.8651 13.0769 10.8276 13.1209 10.79C13.4732 10.6025 13.9135 10.6775 14.1777 10.9401C14.4419 11.2027 14.4419 11.6153 14.1777 11.8779C13.9135 12.1405 13.4732 12.2155 13.1209 12.0279C13.0769 11.9904 12.9888 11.9529 12.9448 11.9154C12.6806 11.7653 12.3724 11.9154 12.3283 12.178C12.3283 12.253 12.3283 12.328 12.3283 12.403C12.3283 13.4158 12.3283 14.3911 12.3283 15.404C12.3283 15.479 12.3283 15.554 12.3283 15.629C11.6238 15.629 10.9193 15.629 10.2588 15.629C10.2588 15.3289 10.2147 15.0288 10.1707 14.7663C9.99459 13.5284 9.42216 12.4405 8.36537 11.5778C7.35261 10.7525 6.60405 9.77723 6.25178 8.61437C6.16372 8.35179 6.11968 8.08921 6.03162 7.78912C6.51598 7.78912 6.95631 7.78912 7.39664 7.78912C7.6168 7.78912 7.79294 7.78912 7.92504 7.60156C8.0131 7.41401 7.92503 7.30147 7.83697 7.15143C7.57277 6.81382 7.6168 6.43871 7.96907 6.17613C8.2773 5.95106 8.76166 5.95106 9.06989 6.17613C9.37812 6.4012 9.46619 6.81382 9.20199 7.11391C9.06989 7.26396 8.98183 7.41401 9.06989 7.56405C9.20199 7.75161 9.37812 7.75161 9.59829 7.75161C10.3909 7.75161 11.1835 7.75161 11.9761 7.75161C12.1082 7.75161 12.1962 7.75161 12.3283 7.75161Z" fill="#FFFFFF"/>
<path d="M13.1648 10.0026C13.1648 9.25241 13.1648 8.50218 13.1648 7.75195C13.8694 7.75195 14.5739 7.75195 15.2784 7.75195C15.0583 8.83979 15.8949 9.47748 16.7315 9.55251C17.3039 9.59002 17.7883 9.43997 18.1846 9.06486C18.5809 8.68974 18.669 8.2396 18.5369 7.75195C19.1093 7.75195 19.6377 7.75195 20.2542 7.75195C20.1221 8.20209 19.99 8.65223 19.8138 9.10237C19.4616 10.0026 18.8891 10.7529 18.0525 11.3906C16.9957 12.2533 16.3352 13.2661 16.1151 14.4665C16.027 14.8416 16.027 15.2167 15.983 15.5919C15.0142 15.5919 14.0895 15.5919 13.0768 15.5919C13.0768 14.6541 13.0768 13.7163 13.0768 12.7785C13.6492 12.8535 14.1776 12.7785 14.6179 12.4034C14.9702 12.1408 15.1023 11.8032 15.1463 11.3906C15.2344 10.5278 14.4858 10.0026 13.1648 10.0026Z" fill="#FFFFFF"/>
<path d="M6.91228 7.03935C6.60405 7.03935 6.33985 7.03935 6.03162 7.03935C6.03162 5.68894 6.51598 4.48857 7.44067 3.43825C8.6736 2.05032 10.3028 1.26258 12.3283 1C12.3283 1.48765 12.3283 1.93779 12.3283 2.42544C10.9633 2.38793 10.1707 2.9506 10.2148 3.9259C10.2588 4.78866 11.1394 5.31382 12.3283 5.2388C12.3283 5.83898 12.3283 6.43917 12.3283 7.03935C11.6238 7.03935 10.9193 7.03935 10.2148 7.03935C10.3468 6.40166 10.1267 5.83898 9.51022 5.50138C8.93779 5.16378 8.32133 5.16378 7.7489 5.46387C7.00034 5.83898 6.78018 6.36415 6.91228 7.03935Z" fill="#FFFFFF"/>
<path d="M10.6992 19.1929C12.3284 19.1929 13.9577 19.1929 15.5869 19.1929C15.6749 19.9809 14.4861 20.9189 13.3412 20.994C12.0642 21.069 10.7433 20.206 10.6992 19.1929Z" fill="#FFFFFF"/>
<path d="M13.1648 17.0552C11.9319 17.0552 10.699 17.0552 9.46605 17.0552C9.15782 17.0552 9.02572 16.9427 8.98169 16.7175C8.98169 16.5299 9.11379 16.3423 9.37799 16.3423C9.42202 16.3423 9.46605 16.3423 9.51008 16.3423C11.9319 16.3423 14.3977 16.3423 16.8196 16.3423C16.8636 16.3423 16.9517 16.3423 16.9957 16.3423C17.2159 16.3798 17.348 16.4924 17.348 16.68C17.348 16.8676 17.2159 17.0177 16.9957 17.0552C16.9076 17.0552 16.8636 17.0552 16.7755 17.0552C15.5426 17.0552 14.3537 17.0552 13.1648 17.0552Z" fill="#FFFFFF"/>
<path d="M13.1649 17.7676C14.3978 17.7676 15.6308 17.7676 16.8637 17.7676C17.1719 17.7676 17.348 17.9177 17.348 18.1428C17.348 18.3304 17.2159 18.443 16.9958 18.4805C16.9077 18.4805 16.8196 18.4805 16.7316 18.4805C14.3538 18.4805 11.932 18.4805 9.55421 18.4805C9.46614 18.4805 9.42211 18.4805 9.33404 18.4805C9.11388 18.4805 8.93774 18.3304 8.93774 18.1428C8.93774 17.9552 9.06984 17.8051 9.33404 17.7676C9.37807 17.7676 9.46614 17.7676 9.51017 17.7676C10.7431 17.7676 11.932 17.7676 13.1649 17.7676Z" fill="#FFFFFF"/>
<path d="M2.59663 1.48779C2.68469 1.52532 2.77276 1.52532 2.86082 1.56284C3.65342 1.97559 4.49004 2.35082 5.28264 2.76357C5.54684 2.91366 5.6349 3.10128 5.5028 3.28889C5.3707 3.47651 5.15054 3.51403 4.88634 3.40146C4.09375 3.02623 3.25712 2.61348 2.46453 2.20073C2.1563 2.05064 2.11226 1.78798 2.33243 1.60036C2.42049 1.56284 2.50856 1.52532 2.59663 1.48779Z" fill="#FFFFFF"/>
<path d="M5.59058 11.0529C5.54655 11.0904 5.45848 11.2405 5.37042 11.3155C4.53379 11.7283 3.69716 12.141 2.86053 12.5538C2.64037 12.6663 2.37617 12.5913 2.24407 12.4412C2.11197 12.2536 2.20004 12.066 2.4202 11.9534C3.25683 11.5031 4.09346 11.0904 4.93009 10.6776C5.23832 10.5275 5.59058 10.6776 5.59058 11.0529Z" fill="#FFFFFF"/>
<path d="M24.0852 12.141C24.0852 12.5162 23.7329 12.6663 23.4247 12.5162C22.8082 12.216 22.1917 11.9158 21.6193 11.6156C21.3991 11.5031 21.179 11.428 21.0028 11.3155C20.7827 11.2029 20.6946 11.0153 20.8267 10.8277C20.9588 10.6401 21.179 10.565 21.4432 10.7151C22.2798 11.1278 23.1164 11.5406 23.909 11.9534C23.9531 11.9534 24.0411 12.1034 24.0852 12.141Z" fill="#FFFFFF"/>
<path d="M24.0846 1.93806C24.0406 1.97559 23.9525 2.12568 23.8645 2.20073C23.0278 2.61348 22.1912 3.02623 21.3546 3.43898C21.1344 3.55155 20.8702 3.4765 20.7822 3.28889C20.6501 3.10127 20.7381 2.91366 20.9583 2.80109C21.7949 2.38834 22.6315 1.97559 23.4241 1.56284C23.7324 1.45027 24.0846 1.60036 24.0846 1.93806Z" fill="#FFFFFF"/>
</svg>
