<svg width="21" height="20" viewBox="0 0 21 20" fill="none" xmlns="http://www.w3.org/2000/svg">
<path d="M10.8562 0C11.0319 0 11.0319 0 11.2075 0.152672C12.0857 0.305343 12.6126 1.0687 12.4369 1.83206C12.2613 2.59542 11.3831 3.20611 10.505 3.20611C9.62681 3.20611 8.92428 2.59542 8.74865 1.83206C8.57302 1.0687 9.27555 0.305343 10.1537 0H10.3293C10.505 0 10.6806 0 10.8562 0Z" fill="#FFFFFF"/>
<path d="M15.0719 10.0764C15.0719 10.9924 15.0719 11.9085 15.0719 12.9772C15.0719 13.7405 14.545 14.0459 13.8425 14.0459C11.7349 14.0459 9.45171 14.0459 7.34413 14.0459C6.46597 14.0459 6.11471 13.5878 6.11471 12.9772C6.11471 11.1451 6.11471 9.16037 6.11471 7.32831C5.93907 6.41228 6.46597 6.10693 7.34413 6.10693C9.45171 6.10693 11.7349 6.10693 13.8425 6.10693C14.7207 6.10693 15.0719 6.56495 15.0719 7.17564C15.0719 8.09167 15.0719 9.16037 15.0719 10.0764ZM9.10045 10.9924C9.10045 11.1451 9.10045 11.2978 9.10045 11.4504C9.10045 11.7558 9.27608 11.7558 9.45171 11.7558C9.80298 11.7558 10.1542 11.7558 10.5055 11.7558C11.7349 11.9085 12.6131 11.1451 12.6131 10.2291C12.7887 9.31304 11.9106 8.54968 11.0324 8.39701C10.6811 8.24434 10.1542 8.39701 9.62735 8.39701C9.27608 8.24434 9.10045 8.39701 9.10045 8.70235C9.10045 8.85502 9.10045 9.16037 9.10045 9.46571C9.10045 9.61838 9.10045 9.61838 8.92482 9.61838H8.74919C8.57355 9.61838 8.57355 9.77106 8.57355 9.92373C8.57355 10.0764 8.74919 10.2291 8.92482 10.2291C9.10045 10.3817 9.10045 10.3817 9.10045 10.6871C9.10045 10.8398 9.10045 10.9924 9.10045 10.9924Z" fill="#FFFFFF"/>
<path d="M2.07468 15.8777C1.02089 15.8777 0.318359 15.1143 0.318359 14.3509C0.318359 13.4349 1.19652 12.8242 2.07468 12.8242C3.12847 12.8242 4.00663 13.5876 4.00663 14.3509C4.00663 15.1143 3.12847 15.8777 2.07468 15.8777Z" fill="#FFFFFF"/>
<path d="M2.07477 4.2749C3.12857 4.2749 3.83109 5.03826 3.83109 5.80162C3.83109 6.71765 2.95293 7.48101 2.07477 7.48101C1.02098 7.48101 0.318454 6.71765 0.142822 5.95429C0.318454 4.88559 1.19661 4.2749 2.07477 4.2749Z" fill="#FFFFFF"/>
<path d="M18.9355 4.2749C19.9893 4.2749 20.6918 5.03826 20.6918 5.80162C20.6918 6.71765 19.8137 7.32834 18.9355 7.32834C17.8817 7.32834 17.1792 6.56498 17.1792 5.64895C17.1792 4.88559 18.0574 4.2749 18.9355 4.2749Z" fill="#FFFFFF"/>
<path d="M18.9355 15.878C17.8817 15.878 17.1792 15.1146 17.1792 14.3513C17.1792 13.4352 18.0574 12.6719 18.9355 12.6719C19.9893 12.6719 20.6918 13.4352 20.6918 14.3513C20.8675 15.1146 19.9893 15.878 18.9355 15.878Z" fill="#FFFFFF"/>
<path d="M10.5053 16.9463C11.5591 16.9463 12.2616 17.7096 12.4372 18.473C12.4372 19.389 11.5591 19.9997 10.6809 19.9997C9.62711 19.9997 8.92458 19.2364 8.92458 18.473C8.74895 17.557 9.62711 16.9463 10.5053 16.9463Z" fill="#FFFFFF"/>
<path d="M8.39793 2.90088L8.2223 3.05355C7.16851 3.66424 5.93909 4.27493 4.88529 4.73294C4.70966 4.88561 4.53403 4.73294 4.3584 4.58027C4.3584 4.58027 4.3584 4.27493 4.53403 4.27493C5.58782 3.66424 6.64161 3.20623 7.69541 2.59554C8.04667 2.44287 8.39793 2.59554 8.39793 2.90088Z" fill="#FFFFFF"/>
<path d="M16.8277 4.42746C16.8277 4.73281 16.4765 4.88548 16.3008 4.7328C15.774 4.58013 15.4227 4.42746 15.0714 4.27479C14.3689 3.81677 13.6664 3.51143 12.9638 3.20609C12.7882 3.05342 12.7882 3.05342 12.7882 2.74807C12.7882 2.44273 13.1395 2.44273 13.3151 2.5954C14.1933 3.05342 15.0714 3.35876 15.774 3.81677C16.1252 3.96945 16.3008 4.12212 16.6521 4.27479L16.8277 4.42746Z" fill="#FFFFFF"/>
<path d="M8.3971 17.099C8.3971 17.4043 8.04584 17.557 7.87021 17.4043C7.51894 17.2517 7.34331 17.099 7.16768 16.9463C6.28952 16.4883 5.58699 16.183 4.70883 15.7249C4.5332 15.5723 4.35757 15.5723 4.5332 15.4196C4.5332 15.2669 4.70883 15.1143 4.88446 15.1143C5.06009 15.1143 5.23573 15.1143 5.23573 15.2669C6.11389 15.7249 6.99204 16.183 7.69457 16.4883C7.8702 16.641 8.04584 16.641 8.22147 16.7936C8.22147 16.9463 8.3971 17.099 8.3971 17.099Z" fill="#FFFFFF"/>
<path d="M16.8277 15.5723C16.8277 15.7249 16.6521 15.8776 16.4765 15.8776C15.5983 16.3356 14.7202 16.7936 13.842 17.2517C13.6664 17.4043 13.4907 17.4043 13.3151 17.557C13.1395 17.7097 12.9638 17.557 12.7882 17.4043C12.6126 17.2517 12.7882 17.099 12.9638 16.9463C14.0176 16.3356 15.0714 15.8776 16.3008 15.2669C16.4765 15.1143 16.8277 15.2669 16.8277 15.5723Z" fill="#FFFFFF"/>
<path d="M1.72348 10.0765C1.72348 9.61851 1.72348 9.00783 1.72348 8.54981C1.72348 8.24447 1.89912 8.0918 2.07475 8.0918C2.42601 8.0918 2.42601 8.24447 2.42601 8.54981C2.42601 9.61851 2.42601 10.6872 2.42601 11.6032C2.42601 11.9086 2.25038 11.9086 2.07475 12.0613C1.72348 12.0613 1.54785 11.9086 1.54785 11.7559C1.72348 11.1452 1.72348 10.5345 1.72348 10.0765Z" fill="#FFFFFF"/>
<path d="M18.5842 10.0765C18.5842 9.61851 18.5842 9.00783 18.5842 8.54981C18.5842 8.24447 18.7599 8.0918 18.9355 8.0918C19.1111 8.0918 19.2868 8.24447 19.2868 8.39714C19.2868 9.46584 19.2868 10.5345 19.2868 11.6032C19.2868 11.9086 19.1111 11.9086 18.9355 11.9086C18.7599 11.9086 18.5842 11.7559 18.5842 11.6032C18.5842 11.1452 18.5842 10.5345 18.5842 10.0765Z" fill="#FFFFFF"/>
<path d="M10.1537 4.58025C10.1537 4.42758 10.1537 4.27491 10.1537 4.12224C10.1537 3.96957 10.3293 3.81689 10.505 3.81689C10.6806 3.81689 10.8562 3.96957 10.8562 4.12224C10.8562 4.42758 10.8562 4.73292 10.8562 5.03827C10.8562 5.19094 10.6806 5.34361 10.505 5.34361C10.3293 5.34361 10.1537 5.19094 10.1537 5.03827C10.1537 4.8856 10.1537 4.73293 10.1537 4.58025Z" fill="#FFFFFF"/>
<path d="M10.1537 15.4196C10.1537 15.2669 10.1537 15.1143 10.1537 14.9616C10.1537 14.8089 10.3293 14.6562 10.505 14.6562C10.6806 14.6562 10.8562 14.8089 10.8562 14.9616C10.8562 15.2669 10.8562 15.5723 10.8562 15.8776C10.8562 16.0303 10.6806 16.183 10.505 16.183C10.3293 16.183 10.1537 16.0303 10.1537 15.8776C10.1537 15.725 10.1537 15.5723 10.1537 15.4196Z" fill="#FFFFFF"/>
<path d="M4.70966 13.2824C4.53403 13.2824 4.3584 13.1297 4.3584 12.9771C4.3584 12.8244 4.53403 12.519 4.88529 12.519C5.06093 12.519 5.23656 12.6717 5.23656 12.8244C5.23656 13.1297 5.06093 13.2824 4.70966 13.2824Z" fill="#FFFFFF"/>
<path d="M5.23656 7.17579C5.23656 7.32846 5.06093 7.48113 4.88529 7.48113C4.70966 7.48113 4.3584 7.32846 4.3584 7.02312C4.3584 6.87044 4.53403 6.71777 4.70966 6.71777C5.06093 6.71777 5.23656 7.02312 5.23656 7.17579Z" fill="#FFFFFF"/>
<path d="M16.8279 12.9768C16.8279 13.1295 16.6522 13.2822 16.4766 13.2822C16.1253 13.2822 15.9497 13.1295 15.9497 12.9768C15.9497 12.8242 16.1253 12.6715 16.301 12.6715C16.4766 12.5188 16.8279 12.8242 16.8279 12.9768Z" fill="#FFFFFF"/>
<path d="M16.4766 6.71777C16.6522 6.71777 16.8279 6.87044 16.8279 7.02312C16.8279 7.17579 16.6522 7.48113 16.301 7.48113C16.1253 7.48113 15.9497 7.32846 15.9497 7.17579C15.9497 7.02312 16.1253 6.71777 16.4766 6.71777Z" fill="#FFFFFF"/>
<path d="M9.97839 10.8396C9.97839 10.6869 9.97839 10.6869 9.97839 10.8396C9.97839 10.5342 9.97839 10.3816 10.3297 10.3816C10.5053 10.3816 10.6809 10.2289 10.6809 10.0762C10.6809 9.92356 10.5053 9.77088 10.3297 9.61821C9.97839 9.61821 9.97839 9.61821 9.97839 9.31287C9.97839 8.70218 9.97839 8.85485 10.5053 8.85485C11.2078 8.85485 11.9103 9.31287 11.9103 9.92356C11.9103 10.5342 11.3834 11.1449 10.6809 11.1449H10.5053C9.97839 11.2976 9.97839 11.2976 9.97839 10.8396Z" fill="#FFFFFF"/>
</svg>
