<svg width="26" height="20" viewBox="0 0 26 20" fill="none" xmlns="http://www.w3.org/2000/svg">
<path d="M25.5716 14.8422C25.4593 15.3433 25.0104 15.6439 24.6736 15.8443C23.4389 16.5458 22.3165 17.3475 21.0818 18.049C19.6226 18.8507 18.0512 19.452 16.3675 19.7526C14.3471 20.1535 12.3267 20.0533 10.3063 19.5522C8.6226 19.1513 6.82668 18.8507 5.14301 18.5501H5.03076C5.03076 18.4499 5.03076 18.4499 5.03076 18.3496C5.03076 16.0447 5.03076 13.7399 5.03076 11.435C5.03076 11.2345 5.14301 11.1343 5.25525 11.1343C6.82668 10.4328 8.39811 10.3326 10.0818 10.7335C12.4389 11.435 14.7961 12.1365 17.041 12.7377C17.8267 12.9382 18.1634 13.6396 18.0512 14.2409C17.8267 15.0426 17.041 15.4435 16.143 15.243C14.7961 14.8422 13.4491 14.4413 12.1022 14.0405C11.7655 14.0405 11.4287 13.9403 11.092 13.8401C10.643 13.7399 10.3063 13.8401 10.0818 14.2409C10.0818 14.5416 10.194 14.9424 10.643 15.0426C12.2144 15.5437 13.6736 15.9445 15.245 16.4456C16.8165 16.8464 18.2757 16.646 19.6226 15.8443C20.745 15.1428 21.9797 14.3411 23.1022 13.6396C24.0001 13.0384 25.1226 13.339 25.4593 14.3411C25.5716 14.5416 25.5716 14.6418 25.5716 14.8422Z" fill="#FFFFFF"/>
<path d="M25.5713 5.8231C25.4591 6.12374 25.4591 6.32416 25.3468 6.6248C24.6734 9.13012 22.0917 10.7335 19.2856 10.5331C16.5917 10.4329 14.2346 8.42863 13.8979 5.92331C13.5611 3.11736 15.4693 0.712254 18.4999 0.110978C21.6428 -0.490297 25.0101 1.41374 25.4591 4.31991C25.4591 4.42012 25.5713 4.62055 25.5713 4.72076C25.5713 5.12161 25.5713 5.42225 25.5713 5.8231ZM20.4081 2.71651C20.4081 2.71651 20.4081 2.61629 20.4081 2.71651C20.4081 2.21544 20.0713 1.91481 19.7346 1.91481C19.2856 1.91481 19.0611 2.21544 18.9489 2.61629C18.9489 2.71651 18.8366 2.71651 18.8366 2.81672C18.4999 2.91693 18.1632 3.01715 17.9387 3.21757C17.153 3.91906 17.2652 5.0214 18.2754 5.52246C18.4999 5.62267 18.7244 5.72289 19.0611 5.8231C19.5101 5.92331 19.9591 6.02352 20.4081 6.12374C20.5203 6.12374 20.6326 6.22395 20.6326 6.22395C20.6326 6.32416 20.5203 6.42438 20.5203 6.42438C20.0713 6.6248 19.6224 6.6248 19.1734 6.42438C18.8366 6.22395 18.3877 6.32416 18.1632 6.6248C17.9387 6.92544 18.0509 7.32629 18.3877 7.52671C18.6122 7.62693 18.8366 7.72714 19.1734 7.92757C19.1734 8.32842 19.5101 8.62905 19.8468 8.62905C20.2958 8.62905 20.5203 8.32842 20.6326 7.92757C20.6326 7.82735 20.7448 7.82735 20.7448 7.72714C20.9693 7.62693 21.306 7.52671 21.5305 7.32629C22.4285 6.6248 22.3162 5.42225 21.306 4.92119C21.0815 4.82097 20.857 4.72076 20.6326 4.72076C20.1836 4.62055 19.7346 4.52034 19.2856 4.42012C19.1734 4.42012 19.0611 4.31991 19.0611 4.31991C19.0611 4.2197 19.1734 4.11948 19.1734 4.11948C19.6224 3.91906 20.0713 3.91906 20.5203 4.11948C20.857 4.31991 21.306 4.2197 21.5305 3.91906C21.755 3.61842 21.6428 3.21757 21.306 3.01715C20.9693 2.91693 20.7448 2.81672 20.4081 2.71651Z" fill="#FFFFFF"/>
<path d="M3.4592 11.8356C3.4592 11.9358 3.4592 12.036 3.4592 12.036C3.4592 14.3409 3.4592 16.6458 3.4592 18.8504C3.4592 19.3515 3.23471 19.6522 2.56124 19.6522C2.11226 19.6522 1.66328 19.6522 1.2143 19.6522C0.765324 19.6522 0.428589 19.3515 0.428589 18.9507C0.428589 16.746 0.428589 14.6415 0.428589 12.4368C0.428589 12.036 0.765324 11.7354 1.2143 11.7354C2.00002 11.8356 2.67349 11.8356 3.4592 11.8356Z" fill="#FFFFFF"/>
</svg>
