<svg width="584" height="520" viewBox="0 0 584 520" fill="none" xmlns="http://www.w3.org/2000/svg">
<path d="M280.184 504.196C280.184 504.196 281.197 516.072 278.695 517.276L246.609 517.213C246.609 517.213 246.609 513.507 251.772 512.684C256.935 511.86 265.994 508.851 267.514 502.137C269.035 495.423 280.184 504.196 280.184 504.196Z" fill="#233862"/>
<path d="M372.261 499.604C372.261 499.604 373.211 516.041 370.709 517.276L338.623 517.213C338.623 517.213 338.623 513.507 343.786 512.684C348.949 511.86 358.008 508.852 359.528 502.137C361.048 495.423 372.261 499.604 372.261 499.604Z" fill="#233862"/>
<path d="M373.368 501.631C373.368 501.631 367.001 504.924 364.277 505.495C361.236 506.16 355.567 505.748 355.567 505.748C344.639 476.484 310.811 357.558 310.811 357.558C309.354 390.433 303.4 423.244 297.223 449.627C297.065 450.323 296.906 451.02 296.716 451.717C296.558 452.35 296.4 452.984 296.273 453.617C296.273 453.649 296.273 453.68 296.241 453.712C288.766 484.813 281.259 506.001 281.259 506.001C281.259 506.001 279.327 508.44 273.911 507.331C267.735 506.033 265.676 503.341 265.676 503.341C269.667 376.624 271.916 305.143 271.916 305.143C271.916 305.143 325.476 276.195 340.047 300.93C354.585 325.665 373.368 501.631 373.368 501.631Z" fill="#2A4E96"/>
<path d="M351.766 318.033C344.83 293.202 343.689 269.639 343.721 250.098C343.784 222.322 346.287 202.749 337.925 199.456C337.925 199.456 312.079 191.95 294.309 188.624C291.49 187.072 288.323 185.425 285.947 184.475C280.341 182.195 258.454 150.365 254.748 142.764C251.043 135.131 244.898 101.972 244.898 101.972L236.378 104.695C236.378 104.695 233.812 141.941 235.047 151.664C236.282 161.387 263.364 203.129 265.613 206.772C275.273 242.022 265.613 299.41 270.015 312.205C272.296 318.793 314.359 330.859 337.386 329.339C338.526 329.276 339.635 329.149 340.68 329.023C346.128 328.262 350.087 326.52 351.544 323.48C352.273 321.96 352.368 320.155 351.766 318.033Z" fill="#AEC3FF"/>
<path d="M244.9 101.972C244.9 101.972 249.714 87.9732 246.198 87.5614C242.683 87.1497 233.814 87.2131 232.737 89.5567C231.66 91.9321 236.379 104.696 236.379 104.696L244.9 101.972Z" fill="#FFB27D"/>
<path d="M153.14 136.842L124.696 119.645C125.963 117.554 127.959 116.192 130.144 115.622C132.33 115.084 134.737 115.369 136.827 116.636C138.665 117.744 141.072 117.142 142.18 115.306L149.877 102.574L156.529 106.596L148.832 119.328C148.262 120.246 148.135 121.291 148.389 122.273C148.642 123.255 149.244 124.11 150.162 124.68C152.253 125.947 153.615 127.942 154.185 130.128C154.692 132.345 154.407 134.752 153.14 136.842Z" fill="#ED7D2B"/>
<path d="M153.139 136.842L134.229 125.409C129.858 121.766 131.98 118.631 134.198 118.092C136.383 117.554 138.79 117.839 140.881 119.106C142.718 120.214 145.125 119.613 146.234 117.776L153.931 105.044L156.56 106.628L148.863 119.359C148.293 120.278 148.166 121.323 148.419 122.305C148.673 123.287 149.275 124.142 150.193 124.712C152.284 125.979 153.646 127.974 154.216 130.159C154.691 132.345 154.406 134.752 153.139 136.842Z" fill="#F99746"/>
<path d="M236.378 53.8947L213.351 82.9055C205.337 96.1441 191.495 102.478 178.256 103.017C173.726 103.207 169.292 102.7 165.174 101.592C161.754 100.673 157.826 102.51 155.672 106.057L155.229 106.817C153.898 109.034 152.758 110.871 152.758 110.871L147.912 107.926C147.912 107.926 149.052 106.057 150.383 103.84C152.758 99.9129 152.631 95.1306 150.034 92.2485C138.948 79.8651 134.799 59.3421 145.378 41.828L160.962 8.31982L236.378 53.8947Z" fill="#F99746"/>
<path d="M140.058 65.3599C141.926 54.4967 136.669 48.5742 131.126 42.3033C126.659 37.2992 122.067 32.1051 121.085 24.3774C119.976 15.8261 123.967 7.0849 130.999 2.61926C136.352 -0.769561 142.243 -0.864575 147.216 2.30254C154.248 6.83153 156.877 15.5728 154.786 27.6395C153.297 36.2541 149.94 43.5384 149.782 43.8552L145.347 41.7965C145.474 41.5432 157.637 14.8127 144.555 6.4198C140.026 3.50605 135.75 5.37465 133.564 6.73651C128.18 10.1253 125.012 17.1247 125.868 23.7439C126.659 29.9832 130.587 34.3855 134.736 39.0411C140.533 45.5654 147.121 52.9765 144.84 66.1833L140.058 65.3599Z" fill="#ED7D2B"/>
<path d="M194.948 98.583C203.69 91.8687 211.387 93.769 219.527 95.7959C226.052 97.4112 232.767 99.0897 240.052 96.366C248.161 93.3572 254.02 85.7878 254.717 77.49C255.224 71.1874 252.563 65.8983 247.464 62.9846C240.179 58.8356 231.215 60.6092 221.523 68.052C214.586 73.3727 209.677 79.7386 209.486 79.992L213.351 82.9691C213.541 82.7474 231.532 59.5641 245.056 67.2285C249.713 69.8889 250.061 74.5445 249.871 77.1099C249.364 83.4442 244.645 89.4934 238.373 91.8054C232.482 93.9907 226.749 92.5655 220.699 91.0769C212.21 88.9866 202.582 86.5796 191.971 94.7191L194.948 98.583Z" fill="#F99746"/>
<path d="M178.225 103.049C173.696 103.239 169.262 102.732 165.144 101.623C161.723 100.705 157.796 102.542 155.642 106.089L155.198 106.849C153.488 107.736 152.221 108.813 151.619 110.238L147.882 107.989C147.882 107.989 149.022 106.121 150.352 103.904C152.728 99.9764 152.601 95.1941 150.004 92.312C138.918 79.9285 134.769 59.4056 145.348 41.8914L160.931 8.3833L173.411 15.921C173.411 15.826 122.796 84.4258 178.225 103.049Z" fill="#ED7D2B"/>
<path d="M155.8 113.817L143.383 106.311C141.705 105.297 141.166 103.08 142.18 101.402C143.193 99.7232 145.411 99.1848 147.089 100.198L159.505 107.704C161.184 108.718 161.723 110.935 160.709 112.613C159.696 114.292 157.478 114.862 155.8 113.817Z" fill="#F99746"/>
<path d="M159.601 72.0742L160.931 69.8573C167.234 73.2777 168.058 72.866 170.655 68.5904L183.705 47.0223C185.542 43.9819 184.623 43.0951 182.343 41.3215L180.727 39.928L181.931 37.9644C186.84 40.213 192.7 42.1133 196.944 42.9684L178.573 73.3411C175.913 77.7434 175.944 78.5035 181.836 82.4624L180.505 84.6794L159.601 72.0742Z" fill="white"/>
<path d="M232.735 89.5569C232.735 89.5569 232.292 94.3709 233.812 95.2893C235.364 96.2078 235.902 89.5569 235.902 89.5569C235.902 89.5569 235.997 95.0043 237.169 95.3844C238.341 95.7644 239.07 89.1134 239.07 89.1134C239.07 89.1134 239.197 94.4025 239.988 94.2125C240.78 94.0225 241.35 89.1134 241.35 89.1134C241.35 89.1134 241.699 92.9457 242.807 92.2489C243.884 91.5521 244.93 87.4666 244.93 87.4666L232.735 89.5569Z" fill="#FFB27D"/>
<path d="M244.897 101.972C244.897 101.972 248.192 99.3747 248.92 97.031C249.649 94.6556 251.771 90.6967 250.662 90.2217C249.522 89.7466 246.196 94.8457 246.196 94.8457L244.897 101.972Z" fill="#FFB27D"/>
<path d="M302.037 184.823L301.625 186.977C301.625 186.977 299.693 193.596 307.802 196.225C315.91 198.854 322.72 200.057 323.512 194.831C323.575 190.651 323.449 184.158 324.05 180.801C324.272 179.566 324.62 178.267 325.127 176.842L309.132 173.358L304.254 173.2L302.037 184.823Z" fill="#FFB27D"/>
<path d="M304.288 173.169L302.8 181.023C318.003 185.046 324.655 178.268 325.162 176.843L309.166 173.359L304.288 173.169Z" fill="#E2915A"/>
<path d="M327.505 173.58C322.785 183.145 309.831 179.155 304.383 176.938C302.831 176.304 301.912 175.829 301.912 175.829C300.265 174.847 300.043 171.744 300.613 167.943C301.754 160.374 305.903 149.985 307.93 147.61C310.939 144 315.69 140.516 327.916 147.42C340.143 154.324 333.554 161.292 327.505 173.58Z" fill="#FFB27D"/>
<path d="M306.6 136.842C306.6 136.842 312.491 138.013 320.156 136.968C326.365 136.113 332.604 140.737 334.537 142.542C334.568 142.162 334.568 141.624 334.378 141.022C334.378 141.022 335.202 142.036 335.075 143.081C335.17 143.176 335.202 143.239 335.17 143.271C335.17 143.271 336.374 143.397 337.039 143.936C337.039 143.936 336.532 143.714 336.247 143.999C336.215 144.031 336.184 144.063 336.152 144.063C343.627 150.65 340.586 164.522 336.912 166.898C332.509 169.748 324.939 177.634 324.939 177.634C324.939 177.634 325.193 174.752 326.745 171.585C328.297 168.418 325.414 167.594 322.184 165.061C318.953 162.527 323.197 159.106 320.727 155.654C318.256 152.17 306.125 150.428 306.853 148.497C302.894 145.678 306.473 137.285 306.6 136.842Z" fill="#233862"/>
<path d="M308.532 170.033C308.532 170.033 307.74 171.205 304.573 169.811C304.573 169.811 301.912 168.64 302.546 167.246C302.546 167.246 305.555 167.214 308.532 170.033Z" fill="white"/>
<path d="M304.984 202.433C304.984 202.433 297.699 250.858 243.125 284.461L238.025 299.252H257.727C257.727 299.252 306.6 258.269 309.894 203.826L304.984 202.433Z" fill="#ED7D2B"/>
<path d="M304.984 202.432V195.085L313.98 197.65L309.862 203.826L304.984 202.432Z" fill="#DB6516"/>
<path d="M302.038 184.823L296.78 189.321C296.78 189.321 295.323 195.592 298.87 202.433L309.481 196.352C309.481 196.352 303.21 193.343 302.038 184.823Z" fill="#9DB0F4"/>
<path d="M309.483 196.352C309.483 196.352 310.529 202.053 313.284 204.871C313.284 204.871 325.225 202.781 328.551 197.049L323.547 189.226C323.547 189.226 322.375 194.578 309.483 196.352Z" fill="#9DB0F4"/>
<path d="M381.097 321.865C381.097 321.865 381.129 332.696 380.115 334.85C379.133 337.004 374.636 344.035 372.577 345.523C370.518 347.012 373.02 336.845 372.387 334.977C371.753 333.108 370.961 338.651 369.98 338.872C369.029 339.094 368.776 334.217 368.554 332.443C368.332 330.669 372.609 325.824 373.907 321.897C375.174 317.969 381.097 321.865 381.097 321.865Z" fill="#FFB27D"/>
<path d="M337.767 199.456C337.767 199.456 348.283 202.306 355.409 217.983C362.884 234.421 382.871 270.938 383.599 275.973C384.328 281.009 382.269 328.073 382.269 328.073C382.269 328.073 373.527 328.421 370.803 324.272C370.803 324.272 367.762 282.973 366.4 280.724C365.038 278.475 330.609 237.43 333.523 227.01C336.468 216.558 337.767 199.456 337.767 199.456Z" fill="#AEC3FF"/>
<path d="M351.545 323.448C348.947 325.697 345.432 327.629 340.68 328.991C339.509 329.339 338.432 329.434 337.386 329.308C318.16 327.312 321.106 252.568 330.418 247.058C340.237 241.23 343.721 250.066 343.721 250.066C343.658 269.576 344.798 293.171 351.766 318.001C352.368 320.155 352.273 321.96 351.545 323.448Z" fill="#9DB0F4"/>
<path d="M296.242 453.617C296.369 453.047 296.527 452.414 296.686 451.717C296.559 452.35 296.401 452.984 296.242 453.617Z" fill="#233862"/>
<path d="M297.192 449.626C303.084 421.756 296.749 347.107 299.568 345.682C302.482 344.225 310.781 357.558 310.781 357.558C309.324 390.465 303.369 423.244 297.192 449.626Z" fill="#233862"/>
<path d="M153.264 506.508L151.554 494.283L158.68 488.328L160.929 504.512L153.264 506.508Z" fill="#FFB27D"/>
<path d="M176.924 517.434H147.879C147.879 517.434 147.182 513 148.703 509.643C150.16 506.413 152.409 504.418 152.63 501.947C154.467 503.848 156.748 505.083 160.961 504.513C161.467 505.336 164.286 509.802 165.997 511.037C167.865 512.43 176.322 511.924 176.924 517.434Z" fill="#233862"/>
<path d="M171.097 341.501C169.197 356.798 167.645 371.209 166.378 384.637C159.6 456.214 160.93 499.952 160.93 499.952C160.93 499.952 160.455 501.25 156.242 501.25C153.866 501.25 151.554 500.744 151.554 500.744C151.554 500.744 136.414 453.997 137.586 427.425C137.713 424.226 138.093 421.312 138.758 418.81C142.4 405.192 125.328 353.156 143.889 333.805C162.45 314.422 171.952 334.47 171.097 341.501Z" fill="#F99746"/>
<path d="M171.097 341.501C169.197 356.798 167.645 371.209 166.378 384.637L137.586 427.425C137.713 424.226 138.093 421.312 138.758 418.81C142.4 405.192 125.328 353.156 143.889 333.805C162.45 314.422 171.952 334.47 171.097 341.501Z" fill="#ED7D2B"/>
<path d="M193.967 195.687C193.967 195.687 193.27 192.203 192.478 189.543C192.13 188.371 194.568 180.611 196.247 179.661C197.926 178.711 202.329 183.937 201.062 187.927C200.428 189.986 199.383 196.669 199.383 196.669L193.967 195.687Z" fill="#FFB27D"/>
<path d="M193.966 195.687C193.966 195.687 193.048 193.66 192.224 193.343C191.401 193.026 190.514 189.701 189.912 188.402C189.912 188.402 190.482 187.547 191.527 188.656C192.161 189.321 193.555 191.316 193.555 191.316L193.966 195.687Z" fill="#FFB27D"/>
<path d="M73.9848 207.437C73.7947 207.817 73.573 208.45 73.3513 209.084C73.3513 208.925 73.3513 208.735 73.3513 208.577C73.3513 207.342 68.7586 200.659 66.8581 200.248C64.9577 199.836 62.297 206.107 64.6726 209.559C65.8762 211.332 68.8536 217.445 68.8536 217.445L73.7631 214.911C73.7631 214.911 74.0481 212.694 74.745 212.156C75.4418 211.586 75.3151 208.165 75.5051 206.74C75.4735 206.74 74.6499 206.075 73.9848 207.437Z" fill="#FFB27D"/>
<path d="M104.519 502.866C104.107 498.938 104.012 488.645 104.012 488.645C104.012 488.645 114.528 485.288 114.116 487.6C112.215 498.938 112.722 504.544 112.722 504.544L108.478 507.078L104.519 502.866Z" fill="#FFB27D"/>
<path d="M162.324 340.772C162.324 340.772 121.749 451.97 113.767 500.205C113.767 500.205 111.93 501.472 108.478 501.06C104.55 500.585 103.505 497.861 103.505 497.861C103.505 497.861 96.1884 440.061 110.758 419.982C120.767 406.205 106.451 345.618 129.763 340.772C153.012 335.927 162.324 340.772 162.324 340.772Z" fill="#F99746"/>
<path d="M155.103 233.819C155.103 233.787 155.103 233.787 155.103 233.819C155.103 233.756 155.072 233.724 155.072 233.661C154.85 232.679 154.565 231.729 154.312 230.747C153.456 227.833 152.443 225.046 151.366 222.576C150.732 221.182 150.099 219.852 149.434 218.712C149.339 218.522 149.244 218.364 149.149 218.205C147.597 215.576 145.981 213.74 144.524 213.201C141.864 212.188 138.918 212.473 136.891 212.884C137.334 212.251 138.348 211.903 138.348 211.903C137.049 211.903 134.389 213.581 134.389 213.581C115.701 209.401 116.809 235.846 118.076 241.832C119.343 247.818 113.325 250.731 104.837 256.876C88.6511 268.562 88.9045 280.977 88.9045 280.977C89.0629 281.041 89.2213 281.104 89.3796 281.199C90.0448 279.584 91.4068 276.543 92.8638 275.91C92.8321 276.068 91.6602 279.996 91.3118 282.181C93.7823 283.543 97.2031 285.633 100.909 288.008C105.882 291.176 111.33 294.849 115.732 297.795C115.511 296.591 115.321 294.881 115.637 293.899L117.031 298.238L117.221 298.808C120.008 300.709 122.226 302.229 123.366 302.989C123.493 303.052 123.588 303.147 123.683 303.211C123.999 303.432 124.189 303.559 124.189 303.559C123.809 302.039 125.456 298.048 128.18 293.013C128.37 292.664 128.56 292.316 128.782 291.936C129.669 290.352 130.651 288.674 131.728 286.932C132.108 286.298 132.488 285.696 132.9 285.063C133.217 284.556 133.533 284.05 133.882 283.511C134.674 282.276 135.497 281.041 136.352 279.806C138.538 276.607 140.818 273.408 143.099 270.494C146.393 266.25 149.624 262.545 152.348 260.138C152.443 259.948 152.506 259.758 152.601 259.568C153.013 258.586 153.361 257.477 153.615 256.369C153.678 256.021 153.773 255.704 153.836 255.355C154.502 251.808 154.533 248.261 154.502 247.438C154.723 250.858 154.628 253.455 154.407 255.419C154.343 255.862 154.312 256.242 154.248 256.622C154.09 257.446 153.931 258.143 153.773 258.713C154.216 258.174 154.597 257.572 154.945 256.907C155.167 256.464 155.388 256.021 155.547 255.545C157.606 249.94 157.004 241.61 155.103 233.819Z" fill="#163560"/>
<path d="M151.587 260.581C151.651 260.613 146.361 264.445 141.863 263.907C137.651 263.4 134.198 258.523 134.262 258.523C135.94 257.921 136.067 255.482 134.515 245.347L135.307 245.379L148.768 246.013C148.768 246.013 149.085 250.161 149.655 254.057C150.13 257.287 150.795 260.328 151.587 260.581Z" fill="#FFB27D"/>
<path d="M148.798 246.013C148.798 246.013 149.115 250.161 149.685 254.057C142.337 254.944 137.491 248.831 135.337 245.379L148.798 246.013Z" fill="#ED975D"/>
<path d="M133.785 244.144C133.785 244.144 129.065 238.665 127.355 233.629C126.151 230.018 125.993 216.051 140.056 215.988C140.056 215.988 144.111 215.798 148.26 217.762C151.554 219.345 156.527 223.051 153.454 235.719L152.789 239.932L133.785 244.144Z" fill="#163560"/>
<path d="M172.777 338.651C172.777 338.651 155.262 349.039 133.311 343.718C133.058 343.655 115.226 340.804 115.226 340.804C115.542 339.981 117.823 326.172 118.14 325.412C122.036 315.341 129.162 260.739 135.117 258.047C136.637 259.694 140.977 260.834 144.714 260.518C148.99 260.138 150.415 258.301 150.067 256.305C154.818 258.554 158.461 260.613 158.461 260.613C162.737 267.105 172.777 338.651 172.777 338.651Z" fill="white"/>
<path d="M151.778 249.306C151.778 249.306 134.515 252.157 132.9 241.388C131.285 230.62 127.959 223.716 138.918 221.436C149.877 219.155 152.633 222.956 154.058 226.408C155.452 229.892 156.212 248.293 151.778 249.306Z" fill="#FFB27D"/>
<path d="M146.772 220.01C146.772 220.01 143.922 233.344 136.922 236.321C129.922 239.266 126.501 237.778 126.501 237.778C126.501 237.778 131.41 232.52 131.41 224.602C131.41 224.634 142.306 214.531 146.772 220.01Z" fill="#163560"/>
<path d="M145.727 221.214C145.727 221.214 149.686 223.494 150.953 226.123C152.22 228.752 153.455 234.326 155.07 233.883C155.07 233.883 157.351 224.761 152.632 220.486C147.627 215.988 145.727 221.214 145.727 221.214Z" fill="#163560"/>
<path d="M199.509 195.94C198.812 195.687 197.767 195.117 196.437 194.99C195.233 194.895 193.713 195.275 193.713 195.275C193.713 195.275 188.835 225.521 188.455 227.136C188.106 228.752 167.582 251.84 162.039 251.777C157.034 251.682 151.111 255.545 150.034 256.306C150.034 256.306 161.659 280.914 162.26 285.538C162.894 290.574 168.912 368.01 168.912 368.01C168.912 368.01 168.564 371.62 175.278 369.688C182.025 367.757 183.704 366.141 183.704 366.141C183.704 366.141 177.527 305.174 176.229 286.235C176.07 283.701 175.627 281.326 175.057 279.172C174.487 277.082 174.93 274.833 176.229 273.091C184.749 261.405 198.179 242.497 198.939 238.475C199.984 232.457 199.509 195.94 199.509 195.94Z" fill="#2B478B"/>
<path d="M128.717 517.434H99.6721C99.6721 517.434 98.9752 513 100.496 509.643C101.953 506.413 104.201 504.418 104.423 501.947C106.26 503.848 108.541 505.083 112.753 504.513C113.26 505.336 116.079 509.802 117.79 511.037C119.69 512.43 128.147 511.924 128.717 517.434Z" fill="#233862"/>
<path d="M148.704 287.882C147.722 281.864 135.211 257.668 135.211 257.668C135.211 257.668 127.292 255.292 122.098 257.193C116.903 259.093 89.9801 243.891 89.1249 242.465C88.2697 241.072 73.858 214.215 73.858 214.215C73.858 214.215 72.6544 213.518 70.754 214.531C68.8535 215.513 68.8535 217.445 68.8535 217.445C68.8535 217.445 79.9711 251.27 82.9485 256.496C84.7222 259.663 99.7358 270.621 111.392 278.856C113.609 280.439 114.781 283.1 114.401 285.792C112.849 297.352 112.437 303.876 110.632 323.702C109.143 340.171 108.573 372.032 108.573 372.032C108.573 372.032 121.591 376.53 130.586 377.131C139.582 377.733 141.546 368.263 141.546 368.263C141.546 368.263 149.686 294.09 148.704 287.882Z" fill="#2B478B"/>
<path d="M146.106 243.986C146.106 243.986 148.197 245.221 150.668 244.841C152.378 244.587 152.758 242.561 152.758 242.561C152.758 242.561 151.586 242.18 149.686 242.561C147.817 242.972 146.106 243.986 146.106 243.986Z" fill="white"/>
<path d="M482.264 241.737C482.264 241.737 487.617 250.573 477.545 256.147C477.545 256.147 485.305 258.935 487.997 257.889C487.997 257.889 487.332 258.586 486.825 258.84C486.825 258.84 494.11 261.152 497.721 259.885C501.364 258.618 509.156 223.368 487.681 221.499C487.681 221.499 470.735 215.418 467.156 234.358C463.577 253.265 457.052 251.428 457.052 251.428C457.052 251.428 458.635 252.759 459.522 253.012C459.522 253.012 460.916 252.917 461.359 252.347C461.359 252.347 460.821 253.297 460.409 253.55C460.409 253.55 467.282 256.147 471.495 254.691C475.708 253.234 482.201 245.823 482.264 241.737Z" fill="#163560"/>
<path d="M460.694 520H488.124C488.124 520 488.789 515.819 487.364 512.652C486.002 509.612 483.848 507.743 483.658 505.399C481.916 507.205 479.762 508.345 475.803 507.806C475.328 508.598 472.667 512.811 471.052 513.982C469.246 515.281 461.264 514.837 460.694 520Z" fill="#233862"/>
<path d="M483.339 509.548C483.339 509.548 480.995 510.308 478.556 510.53C474.249 510.91 473.615 509.643 473.615 509.643C473.615 509.643 469.339 471.448 455.434 398.414C453.439 387.868 452.647 382.04 451.919 372.665C451.697 369.847 451.475 366.743 451.253 363.069C450.62 353.219 452.109 336.655 459.489 332.316C462.846 330.321 467.407 330.891 473.584 335.737C474.059 336.117 474.565 336.529 475.072 336.972C493.063 352.554 485.683 397.242 486.412 418.272C486.538 421.756 486.887 424.606 487.584 426.538C488.502 429.04 490.498 432.524 490.973 435.818C494.774 463.023 483.339 509.548 483.339 509.548Z" fill="#2B478B"/>
<path d="M486.444 418.24L451.951 372.634C451.729 369.815 451.507 366.711 451.286 363.037C450.652 353.188 452.141 336.624 459.521 332.285L473.616 335.705C474.091 336.085 474.598 336.497 475.104 336.94C493.095 352.491 485.715 397.211 486.444 418.24Z" fill="#233862"/>
<path d="M583.968 462.326L572.565 437.401C572.565 437.401 568.479 438.541 566.199 441.17C564.013 443.672 562.429 443.229 557.425 439.776C559.294 442.69 559.547 444.4 560.719 448.233C561.637 448.359 566.864 453.395 572.217 454.789C574.339 455.327 579.027 463.973 583.968 462.326Z" fill="#233862"/>
<path d="M464.335 343.243C464.335 343.243 488.915 428.628 497.91 434.139C506.905 439.65 554.226 447.188 563.855 451.305C563.855 451.305 565.027 449.626 564.331 446.048C564.172 445.256 562.81 442.374 562.81 442.374C562.81 442.374 533.417 420.267 514.064 418.05C509.249 417.512 523.851 344.193 491.385 341.248C461.802 338.587 464.335 343.243 464.335 343.243Z" fill="#2B478B"/>
<path d="M429.272 203.13C429.272 203.13 429.937 199.836 430.666 197.334C430.983 196.225 428.702 188.909 427.118 188.022C425.535 187.136 421.385 192.045 422.557 195.813C423.159 197.745 424.141 204.08 424.141 204.08L429.272 203.13Z" fill="#FFB27D"/>
<path d="M429.271 203.129C429.271 203.129 430.127 201.229 430.919 200.913C431.71 200.596 432.534 197.492 433.104 196.225C433.104 196.225 432.566 195.402 431.584 196.447C430.982 197.08 429.683 198.949 429.683 198.949L429.271 203.129Z" fill="#FFB27D"/>
<path d="M542.475 214.215C542.634 214.563 542.887 215.196 543.077 215.766C543.077 215.608 543.077 215.45 543.077 215.291C543.077 214.12 547.416 207.817 549.19 207.405C550.964 207.025 553.498 212.916 551.249 216.21C550.109 217.888 547.321 223.653 547.321 223.653L542.697 221.277C542.697 221.277 542.443 219.187 541.778 218.68C541.113 218.142 541.24 214.911 541.05 213.581C541.081 213.549 541.842 212.916 542.475 214.215Z" fill="#FFB27D"/>
<path d="M469.244 264.35C469.18 264.382 474.185 267.992 478.429 267.486C482.42 267.01 485.651 262.418 485.619 262.386C484.036 261.816 483.909 259.536 485.366 249.94L484.606 249.971L471.904 250.573C471.904 250.573 471.619 254.5 471.081 258.143C470.606 261.246 470.004 264.128 469.244 264.35Z" fill="#FFB27D"/>
<path d="M471.906 250.573C471.906 250.573 471.62 254.5 471.082 258.143C478.019 258.966 482.58 253.234 484.607 249.971L471.906 250.573Z" fill="#ED975D"/>
<path d="M486.062 248.831C486.062 248.831 490.528 243.669 492.112 238.918C493.252 235.529 493.411 222.322 480.139 222.259C480.139 222.259 476.307 222.069 472.411 223.938C469.307 225.426 464.619 228.942 467.501 240.882L468.103 244.872L486.062 248.831Z" fill="#163560"/>
<path d="M453.312 339.949C453.312 339.949 465.76 347.803 486.507 342.768C486.76 342.704 498.29 340.867 498.29 340.867C498.005 340.076 485.873 320.028 485.588 319.299C481.914 309.798 490.435 264.476 484.797 261.943C483.371 263.495 479.254 264.571 475.769 264.255C471.715 263.906 470.385 262.164 470.702 260.264C466.236 262.386 462.783 264.35 462.783 264.35C458.729 270.494 453.312 339.949 453.312 339.949Z" fill="#FFB27D"/>
<path d="M469.087 253.708C469.087 253.708 485.367 256.4 486.887 246.234C488.408 236.068 491.544 229.575 481.218 227.421C470.892 225.268 468.295 228.846 466.933 232.109C465.602 235.371 464.874 252.727 469.087 253.708Z" fill="#FFB27D"/>
<path d="M473.807 226.059C473.807 226.059 476.499 238.665 483.087 241.42C489.675 244.207 492.938 242.813 492.938 242.813C492.938 242.813 488.313 237.841 488.282 230.398C488.282 230.398 478.019 220.897 473.807 226.059Z" fill="#163560"/>
<path d="M474.757 227.2C474.757 227.2 471.019 229.353 469.816 231.824C468.612 234.294 467.472 239.552 465.92 239.14C465.92 239.14 463.766 230.525 468.232 226.503C472.983 222.259 474.757 227.2 474.757 227.2Z" fill="#163560"/>
<path d="M546.275 223.621C546.275 223.621 535.791 255.546 532.972 260.455C531.293 263.432 512.384 275.214 501.393 282.973C501.266 283.068 501.14 283.227 500.981 283.48C498.226 287.724 489.737 313.948 491.764 318.635C500.316 338.429 506.208 346.062 508.33 351.605C509.407 354.36 507.981 357.464 505.162 358.477C501.647 359.744 496.452 361.296 490.339 362.341C489.167 362.531 487.963 362.721 486.728 362.88C469.846 365.033 458.443 361.074 452.615 358.129C449.859 356.735 448.212 353.853 448.402 350.813C448.751 344.542 451.887 338.366 453.28 323.322C454.357 311.889 444.506 294.533 444.918 288.452C445.077 286.045 446.977 283.163 447.991 281.295C449.796 278.001 450.81 275.024 449.606 273.345C441.561 262.324 424.235 247.121 423.538 243.321C422.493 237.747 422.968 203.288 422.968 203.288C423.633 203.067 424.615 202.497 425.882 202.402C427.022 202.307 428.448 202.655 428.448 202.655C428.448 202.655 433.04 231.222 433.389 232.711C433.737 234.231 453.09 256.021 458.316 255.958C463.036 255.863 469.687 259.505 470.701 260.233C470.701 260.233 466.457 267.739 465.411 277.842C464.683 284.937 469.402 281.77 472.38 276.924C476.402 270.368 484.511 260.993 484.511 260.993C484.511 260.993 491.099 259.283 496.009 261.057C500.918 262.83 526.321 248.483 527.144 247.185C527.968 245.855 541.556 220.518 541.556 220.518C541.556 220.518 542.696 219.852 544.502 220.803C546.275 221.816 546.275 223.621 546.275 223.621Z" fill="#F99746"/>
<path d="M473.807 248.198C473.807 248.198 473.11 249.591 472.16 249.623C471.21 249.655 468.834 249.433 468.676 249.179C468.517 248.926 468.105 247.469 468.105 247.469C468.105 247.469 472.065 247.311 473.807 248.198Z" fill="white"/>
<path d="M505.163 358.509C501.647 359.776 496.452 361.328 490.339 362.373C484.511 354.36 474.661 344.257 477.195 325.666C479.824 306.473 498.701 286.267 500.95 283.48C498.195 287.724 489.706 313.947 491.733 318.635C500.285 338.429 506.176 346.062 508.299 351.604C509.375 354.423 507.95 357.527 505.163 358.509Z" fill="#ED7D2B"/>
<path d="M448.023 281.326C449.828 278.032 450.842 275.055 449.638 273.376C441.593 262.355 424.267 247.152 423.57 243.352C425.281 247.469 446.281 259.789 452.204 265.078C458.032 270.367 448.276 281.072 448.023 281.326Z" fill="#ED7D2B"/>
<path d="M95.5875 129.368C95.5875 129.368 99.5151 134.752 99.1033 140.896C98.7866 145.457 94.7323 150.081 94.4473 150.271L100.877 153.691C100.877 153.691 105.628 145.235 104.045 138.172C103.538 136.019 101.289 132.535 99.6101 131.015C97.7414 129.304 95.5875 129.368 95.5875 129.368Z" fill="#6BB7BF"/>
<path d="M82.4732 129.937L78.4189 120.943C78.4189 120.943 97.3917 121.576 103.695 137.032C103.663 137.064 90.3917 127.594 82.4732 129.937Z" fill="#86D1CD"/>
<path d="M10.7944 358.603C10.7944 358.603 6.26506 355.183 5.09311 350.084C4.23791 346.283 6.39175 341.533 6.5818 341.343L0.532047 340.139C0.532047 340.139 -1.27338 348.184 1.76734 353.536C2.68588 355.183 5.40986 357.432 7.15193 358.287C9.05237 359.174 10.7944 358.603 10.7944 358.603Z" fill="#6BB7BF"/>
<path d="M21.3097 354.898L26.821 361.201C26.821 361.201 11.2373 365.35 2.33691 354.328C2.33691 354.328 15.45 358.762 21.3097 354.898Z" fill="#86D1CD"/>
<path d="M546.403 339.221C546.403 339.221 545.992 333.298 557.141 330.416C562.114 329.118 573.231 331.43 566.2 342.325C558.883 353.695 552.358 349.577 552.358 349.577C552.358 349.577 567.625 337.637 561.512 332.158C554.765 326.141 552.168 338.081 552.168 338.081C552.168 338.081 549.444 337.986 546.403 339.221Z" fill="#F1A34F"/>
<path d="M550.331 350.305C550.331 350.305 546.182 348.057 547.829 343.053L553.815 344.098C553.815 344.098 551.503 349.514 557.141 350.179C557.141 350.147 551.725 351.446 550.331 350.305Z" fill="#DB7714"/>
<path d="M318.126 81.1635C318.126 81.1635 324.335 72.2005 333.868 78.5348L339.665 72.9923C339.665 72.9923 334.249 68.8751 321.737 76.2544C313.565 81.1001 318.126 81.1635 318.126 81.1635Z" fill="#5685D8"/>
<path d="M311.983 89.9363C311.983 89.9363 310.748 79.6749 327.947 73.2456C327.947 73.2456 321.739 76.2544 319.807 86.5158L311.983 89.9363Z" fill="#739AF0"/>
<path d="M381.097 35.4305C381.097 35.4305 386.196 32.2317 386.703 28.3362C386.703 28.3362 391.644 28.5896 392.721 30.2048C392.721 30.2048 390.441 36.634 387.78 37.8375C387.78 37.8375 381.762 38.2493 381.097 35.4305Z" fill="#F99746"/>
<path d="M217.499 401.771C217.499 401.771 212.083 398.351 211.513 394.202C211.513 394.202 206.223 394.487 205.083 396.197C205.083 396.197 207.522 403.038 210.373 404.337C210.373 404.337 216.771 404.748 217.499 401.771Z" fill="#F99746"/>
<path d="M440.104 136.588C440.104 136.588 445.552 133.136 446.123 128.987C446.123 128.987 451.412 129.272 452.584 130.982C452.584 130.982 450.145 137.855 447.294 139.153C447.294 139.185 440.833 139.597 440.104 136.588Z" fill="#86D1CD"/>
</svg>
