<svg width="24" height="20" viewBox="0 0 24 20" fill="none" xmlns="http://www.w3.org/2000/svg">
<path d="M16.4649 2.62801C16.4649 2.97841 16.3642 3.15361 16.0621 3.24121C15.9614 3.32881 15.8607 3.41641 15.9614 3.59161C15.9614 3.67921 15.9614 3.76681 15.9614 3.76681C15.9614 4.02961 15.9614 4.20482 16.2635 4.38002C16.5656 4.55522 16.5656 4.90562 16.4649 5.16842C16.2635 5.51882 16.0621 5.86922 15.8607 6.13202C15.6593 6.48242 15.2566 6.57002 14.8538 6.30722C14.6524 6.21962 14.5517 6.21962 14.451 6.30722L14.3503 6.39482C14.0483 6.48242 13.8469 6.65762 13.8469 7.00803C13.8469 7.27083 13.4441 7.53363 13.142 7.53363C12.7393 7.53363 12.3365 7.53363 11.9337 7.53363C11.4303 7.53363 11.1282 7.27083 11.1282 6.83283C11.1282 6.65762 11.1282 6.57002 10.9268 6.57002C10.8261 6.57002 10.8261 6.57002 10.8261 6.48242C10.3227 6.39482 10.1213 6.30722 9.7185 6.48242C9.41642 6.57002 9.11434 6.39482 8.91296 6.21962C8.71158 5.86922 8.4095 5.51882 8.20811 5.16842C8.00673 4.81802 8.10742 4.46762 8.51019 4.29242C8.71158 4.20482 8.71158 4.11722 8.71158 3.94201C8.71158 3.85441 8.71158 3.76681 8.71158 3.67921C8.71158 3.41641 8.71158 3.24121 8.4095 3.06601C8.10742 3.06601 8.10742 2.71561 8.20811 2.45281C8.4095 2.10241 8.71158 1.75201 8.91296 1.40161C9.11434 1.1388 9.51711 1.0512 9.91988 1.2264C10.1213 1.314 10.222 1.314 10.4233 1.2264L10.524 1.1388C10.8261 0.963603 10.9268 0.876003 11.0275 0.525602C11.0275 0.262801 11.4303 0 11.7323 0C12.1351 0 12.5379 0 12.9406 0C13.3434 0 13.7462 0.262801 13.7462 0.613202C13.7462 0.788403 13.8469 0.876003 14.0483 0.963604H14.149C14.451 1.1388 14.6524 1.2264 15.0552 1.0512C15.3573 0.876003 15.6593 1.0512 15.8607 1.314C15.9614 1.75201 16.2635 2.10241 16.4649 2.45281C16.4649 2.54041 16.4649 2.62801 16.4649 2.62801ZM9.51711 5.78162C9.51711 5.78162 9.61781 5.78162 9.61781 5.69402C10.0206 5.51882 10.3227 5.51882 10.7254 5.78162C10.9268 5.86922 11.1282 5.95682 11.3296 6.04442C11.531 6.13202 11.7323 6.30722 11.7323 6.57002C11.7323 6.65762 11.7323 6.74522 11.7323 6.83283C12.1351 6.83283 12.5379 6.83283 12.9406 6.83283C12.84 6.39482 13.142 6.13202 13.5448 5.95682C13.7462 5.86922 13.8469 5.78162 14.0483 5.69402C14.2497 5.60642 14.451 5.60642 14.6524 5.60642C14.8538 5.60642 14.9545 5.69402 15.1559 5.78162C15.3573 5.51882 15.5586 5.16842 15.76 4.90562L15.6593 4.81802C15.2566 4.64282 15.0552 4.38002 15.1559 3.94201C15.1559 3.76681 15.1559 3.59161 15.1559 3.50401C15.1559 3.24121 15.2566 2.97841 15.5586 2.80321C15.6593 2.80321 15.6593 2.71561 15.76 2.71561C15.5586 2.45281 15.3573 2.10241 15.1559 1.83961C14.6524 2.19001 14.2496 2.10241 13.9476 1.75201C13.8469 1.66441 13.7462 1.66441 13.6455 1.57681C13.142 1.40161 12.9406 1.1388 12.9406 0.700803C12.5379 0.700803 12.1351 0.700803 11.7323 0.700803C11.6317 1.314 11.6317 1.314 11.0275 1.57681C10.9268 1.66441 10.7254 1.75201 10.6247 1.83961C10.3227 2.01481 10.0206 2.01481 9.7185 1.83961C9.7185 1.83961 9.61781 1.83961 9.51711 1.75201C9.31573 2.10241 9.11434 2.36521 8.91296 2.71561C9.01365 2.71561 9.01365 2.80321 9.01365 2.80321C9.41642 2.89081 9.51711 3.15361 9.51711 3.50401C9.51711 3.67921 9.51711 3.76681 9.51711 3.94201C9.61781 4.38002 9.41642 4.73042 8.91296 4.90562C9.11434 5.25602 9.31573 5.51882 9.51711 5.78162Z" fill="#FFFFFF"/>
<path d="M7.70413 16.6442C7.70413 17.6078 7.70413 18.5714 7.70413 19.5351C7.70413 19.8855 7.60344 19.9731 7.20067 19.9731C5.79098 19.9731 4.48198 19.9731 3.07229 19.9731C2.8709 19.9731 2.77021 19.8855 2.56882 19.7979C2.06536 19.3599 1.46121 18.9219 0.957748 18.3962C0.957748 18.3086 0.857056 18.1334 0.857056 18.0458C0.857056 16.6442 0.857056 15.155 0.857056 13.7534C0.857056 13.4906 0.957748 13.3154 1.36052 13.3154C3.37436 13.3154 5.28752 13.3154 7.30136 13.3154C7.60344 13.3154 7.80482 13.403 7.80482 13.7534C7.70413 14.6294 7.70413 15.6806 7.70413 16.6442ZM6.99928 19.2723C6.99928 17.5202 6.99928 15.7682 6.99928 14.0162C5.18682 14.0162 3.47505 14.0162 1.66259 14.0162C1.66259 15.2426 1.66259 16.469 1.66259 17.6954C2.26675 17.6078 2.77021 17.5202 3.27367 17.4326C3.67644 17.345 3.87782 17.5202 3.77713 17.783C3.67644 18.221 3.57575 18.7466 3.47505 19.1847C4.58267 19.2723 5.79098 19.2723 6.99928 19.2723ZM2.97159 18.1334C2.66952 18.221 2.36744 18.221 2.16605 18.3086C2.36744 18.4838 2.56882 18.7467 2.8709 18.9219C2.77021 18.659 2.8709 18.3962 2.97159 18.1334Z" fill="#FFFFFF"/>
<path d="M19.5861 12.2642C21.3985 12.2642 22.7075 13.4906 22.6068 15.0674C22.6068 15.593 22.4055 16.031 22.0027 16.469C21.4992 17.0822 21.1972 17.6954 21.1972 18.4838C21.1972 19.2722 20.6937 19.8854 19.7875 19.973C18.8812 20.1482 17.975 19.4474 17.975 18.659C17.975 18.1334 17.8743 17.5202 17.5722 17.0822C17.4715 16.907 17.2702 16.6442 17.1695 16.469C15.7598 14.9798 16.8674 12.7022 18.9819 12.3518C19.1833 12.2642 19.3847 12.2642 19.5861 12.2642ZM20.593 15.8558C20.3916 16.031 20.1902 16.1186 20.0895 16.2938C19.9888 16.3814 19.9888 16.469 19.9888 16.469C19.9888 16.8194 19.9888 17.1698 19.9888 17.6078C20.1902 17.6078 20.3916 17.6078 20.593 17.6078C20.7944 16.9946 21.0965 16.469 21.4992 16.031C21.8013 15.6806 22.0027 15.155 21.902 14.717C21.7006 13.7534 20.9958 13.1402 19.8882 13.0526C18.9819 12.965 18.1764 13.2278 17.6729 13.9286C17.1695 14.6294 17.1695 15.3302 17.6729 15.9434C18.0757 16.469 18.4785 16.9946 18.6799 17.6078C18.8812 17.6078 19.0826 17.6078 19.284 17.6078C19.284 17.2574 19.284 16.907 19.284 16.5566C19.284 16.469 19.1833 16.3814 19.1833 16.3814C18.9819 16.2062 18.7805 16.1186 18.6799 15.9434C18.8812 15.7682 19.0826 15.593 19.284 15.4178C19.3847 15.593 19.5861 15.7682 19.6868 15.9434C19.8882 15.7682 19.9889 15.593 20.1902 15.5054C20.1902 15.5054 20.3916 15.6806 20.593 15.8558ZM20.3916 18.3086C19.7875 18.3086 19.284 18.3086 18.6799 18.3086C18.5792 19.0094 19.0826 19.2722 19.4854 19.2722C20.0895 19.2722 20.4923 18.9218 20.3916 18.3086Z" fill="#FFFFFF"/>
<path d="M3.87838 12.1763C3.67699 12.2639 3.37491 12.2639 3.17353 12.3515C2.36799 9.7235 2.77076 7.35829 4.48253 5.16828C4.28114 4.99308 3.97907 4.81788 3.77768 4.64268C3.5763 4.55508 3.47561 4.46748 3.47561 4.29228C3.47561 4.11708 3.67699 4.02948 3.87838 3.94188C4.68391 3.76668 5.48945 3.50387 6.29499 3.24107C6.69776 3.15347 6.89914 3.32867 6.89914 3.67907C6.79845 4.37988 6.79845 5.16828 6.69776 5.95668C6.69776 6.04428 6.59707 6.21948 6.49637 6.30708C6.39568 6.30708 6.1943 6.30708 6.0936 6.21948C5.69084 5.95668 5.48945 5.78148 5.08668 5.60628C3.5763 7.62109 3.17353 9.8111 3.87838 12.1763ZM4.68391 4.37988C5.08668 4.64268 5.48945 4.99308 5.99291 5.25588C5.99291 4.81788 6.0936 4.37988 6.0936 4.02948C5.59014 4.20468 5.18737 4.29228 4.68391 4.37988Z" fill="#FFFFFF"/>
<path d="M20.9953 8.93543C20.5925 6.74542 19.3842 4.99342 17.3704 3.67941C17.4711 3.50421 17.6724 3.32901 17.7731 3.15381C19.9884 4.64301 21.2974 6.48262 21.7001 8.93543C22.1029 8.93543 22.405 8.93543 22.8077 8.93543C23.0091 8.93543 23.1098 8.93543 23.2105 9.11063C23.3112 9.28583 23.2105 9.37343 23.1098 9.54863C22.6064 10.1618 22.2036 10.775 21.7001 11.3882C21.4987 11.651 21.1967 11.651 20.9953 11.3882C20.4918 10.775 20.0891 10.1618 19.5856 9.54863C19.4849 9.46103 19.3842 9.28583 19.4849 9.11063C19.5856 8.93543 19.6863 8.93543 19.8877 8.93543C20.3911 8.93543 20.6932 8.93543 20.9953 8.93543ZM20.6932 9.63623C20.9953 9.98663 21.1967 10.337 21.4987 10.6874C21.8008 10.337 22.0022 9.98663 22.3043 9.63623C21.7001 9.63623 21.1967 9.63623 20.6932 9.63623Z" fill="#FFFFFF"/>
<path d="M11.9332 17.6953C12.6381 17.6077 13.3429 17.6077 14.0478 17.5201C14.7526 17.4325 15.3568 17.1697 16.0616 16.9945C16.1623 17.1697 16.263 17.3449 16.3637 17.5201C14.8533 18.1333 13.3429 18.3085 11.7319 18.2209C11.6312 18.5713 11.5305 18.9217 11.4298 19.2721C11.4298 19.4473 11.3291 19.5349 11.1277 19.5349C11.027 19.5349 10.8256 19.4473 10.7249 19.3597C10.1208 18.8341 9.61732 18.2209 9.01317 17.6953C8.71109 17.4325 8.81178 17.1697 9.21455 17.0821C10.0201 16.8193 10.8256 16.6441 11.6312 16.3813C11.8325 16.2937 12.0339 16.2937 12.1346 16.4689C12.2353 16.5565 12.2353 16.7317 12.2353 16.9069C12.0339 17.0821 12.0339 17.3449 11.9332 17.6953ZM9.8187 17.6077C10.1208 17.9581 10.4229 18.2209 10.7249 18.5713C10.9263 18.1333 11.027 17.6953 11.1277 17.2573C10.7249 17.3449 10.3222 17.4325 9.8187 17.6077Z" fill="#FFFFFF"/>
<path d="M16.8672 12.1763C17.0686 12.3515 17.1693 12.4391 17.3707 12.6143C17.1693 12.7895 17.0686 12.8771 16.8672 13.0523C16.7666 12.8771 16.5652 12.7895 16.4645 12.6143C16.5652 12.5267 16.7666 12.3515 16.8672 12.1763Z" fill="#FFFFFF"/>
<path d="M23.1104 12.9649C22.9091 13.1401 22.8084 13.2277 22.607 13.4029C22.4056 13.2277 22.3049 13.0525 22.1035 12.9649C22.2042 12.8773 22.4056 12.7021 22.607 12.5269C22.8084 12.6145 23.0097 12.7897 23.1104 12.9649Z" fill="#FFFFFF"/>
<path d="M19.1832 11.9135C19.1832 11.7383 19.1832 11.4755 19.1832 11.3003C19.3846 11.3003 19.6867 11.3003 19.8881 11.3003C19.8881 11.4755 19.8881 11.7383 19.8881 11.9135C19.6867 11.9135 19.4853 11.9135 19.1832 11.9135Z" fill="#FFFFFF"/>
<path d="M15.3566 14.9794C15.3566 14.8042 15.3566 14.5414 15.3566 14.3662C15.558 14.3662 15.86 14.3662 16.0614 14.3662C16.0614 14.5414 16.0614 14.8042 16.0614 14.9794C15.86 14.9794 15.6586 14.9794 15.3566 14.9794Z" fill="#FFFFFF"/>
<path d="M23.0093 14.2788C23.2107 14.2788 23.5127 14.2788 23.7141 14.2788C23.7141 14.454 23.7141 14.7168 23.7141 14.892C23.5127 14.892 23.2107 14.892 23.0093 14.892C23.0093 14.7168 23.0093 14.5416 23.0093 14.2788Z" fill="#FFFFFF"/>
<path d="M12.3362 2.10254C13.4439 2.10254 14.2494 2.80334 14.2494 3.76695C14.2494 4.64295 13.3432 5.43135 12.3362 5.43135C11.2286 5.43135 10.4231 4.64295 10.4231 3.76695C10.4231 2.80334 11.2286 2.10254 12.3362 2.10254ZM12.3362 2.80334C11.7321 2.80334 11.2286 3.24134 11.2286 3.76695C11.2286 4.29255 11.7321 4.73055 12.3362 4.73055C12.9404 4.73055 13.4439 4.29255 13.4439 3.76695C13.4439 3.24134 12.9404 2.80334 12.3362 2.80334Z" fill="#FFFFFF"/>
<path d="M2.36743 14.6289C3.67643 14.6289 4.88474 14.6289 6.19374 14.6289C6.19374 14.8041 6.19374 15.0669 6.19374 15.2421C4.98543 15.2421 3.67643 15.2421 2.36743 15.2421C2.36743 15.0669 2.36743 14.8917 2.36743 14.6289Z" fill="#FFFFFF"/>
<path d="M6.19374 16.2939C6.19374 16.4691 6.19374 16.7319 6.19374 16.9071C4.88474 16.9071 3.67643 16.9071 2.36743 16.9071C2.36743 16.7319 2.36743 16.4691 2.36743 16.2939C3.67643 16.2939 4.88474 16.2939 6.19374 16.2939Z" fill="#FFFFFF"/>
<path d="M6.19349 17.958C6.19349 18.1332 6.19349 18.396 6.19349 18.5712C5.69003 18.5712 5.18657 18.5712 4.68311 18.5712C4.68311 18.396 4.68311 18.1332 4.68311 17.958C5.18657 17.958 5.69003 17.958 6.19349 17.958Z" fill="#FFFFFF"/>
</svg>
