<svg width="24" height="24" viewBox="0 0 24 24" fill="none" xmlns="http://www.w3.org/2000/svg">
<path d="M17 18C16.7348 18 16.4804 17.8946 16.2929 17.7071C16.1054 17.5196 16 17.2652 16 17V8H7C6.73478 8 6.48043 7.89464 6.29289 7.70711C6.10536 7.51957 6 7.26522 6 7C6 6.73478 6.10536 6.48043 6.29289 6.29289C6.48043 6.10536 6.73478 6 7 6H17C17.2652 6 17.5196 6.10536 17.7071 6.29289C17.8946 6.48043 18 6.73478 18 7V17C18 17.2652 17.8946 17.5196 17.7071 17.7071C17.5196 17.8946 17.2652 18 17 18Z" fill="white"/>
<path d="M6.99997 18.0001C6.80222 18 6.60892 17.9414 6.44451 17.8315C6.2801 17.7216 6.15196 17.5654 6.07629 17.3827C6.00062 17.2 5.98082 16.999 6.01939 16.805C6.05795 16.6111 6.15316 16.4329 6.29297 16.2931L16.293 6.29308C16.4811 6.10837 16.7345 6.00541 16.9981 6.0066C17.2617 6.0078 17.5142 6.11305 17.7006 6.29945C17.887 6.48586 17.9923 6.73834 17.9934 7.00195C17.9946 7.26557 17.8917 7.51899 17.707 7.70708L7.70697 17.7071C7.61424 17.8001 7.50404 17.8739 7.38271 17.9241C7.26138 17.9744 7.13131 18.0002 6.99997 18.0001V18.0001Z" fill="white"/>
</svg>
