<svg width="24" height="20" viewBox="0 0 24 20" fill="none" xmlns="http://www.w3.org/2000/svg">
<path d="M11.7282 0C14.9244 0 17.588 2.25681 17.588 5.1362C17.588 7.93776 15.0132 10.2724 11.7282 10.2724C8.53194 10.2724 5.86841 8.01558 5.86841 5.21402C5.95719 2.33463 8.53194 0 11.7282 0Z" fill="#FFFFFF"/>
<path d="M13.2376 19.0662C13.1488 19.0662 13.1488 19.0662 13.06 19.0662C9.59739 19.0662 6.22358 19.0662 2.76099 19.0662C1.87314 19.0662 1.16287 18.5992 0.896515 17.821V17.7432C0.896515 17.0428 0.807731 16.3424 0.896515 15.642C0.9853 14.786 1.51801 14.1634 2.22828 13.6187C3.20491 12.7626 4.44789 12.2179 5.77966 11.8288C7.91049 11.2062 10.1301 10.9728 12.3497 11.0506C12.6161 11.0506 12.9712 11.0506 13.2376 11.0506C10.9292 13.6965 10.8404 16.3424 13.2376 19.0662Z" fill="#FFFFFF"/>
<path d="M18.1206 20.0001C15.102 20.0001 12.5272 17.8211 12.5272 15.1752C12.5272 12.4515 15.0132 10.2725 18.1206 10.2725C21.2281 10.2725 23.7141 12.4515 23.7141 15.1752C23.7141 17.8211 21.2281 20.0001 18.1206 20.0001ZM17.4992 15.4087C17.0552 15.1752 16.7001 14.9417 16.345 14.7861C15.9898 14.5526 15.5459 14.7083 15.2795 15.0196C15.0132 15.3308 15.102 15.7199 15.4571 15.9534C15.9898 16.2647 16.5225 16.576 17.0552 16.8873C17.4104 17.0429 17.7655 17.0429 18.0319 16.8094C18.9197 16.0312 19.8075 15.253 20.6954 14.4748C21.0505 14.1635 20.9617 13.7744 20.6954 13.4631C20.429 13.2297 19.8963 13.2297 19.63 13.4631C19.0085 14.0079 18.4758 14.4748 17.8543 15.0196C17.7655 15.1752 17.6767 15.253 17.4992 15.4087Z" fill="#FFFFFF"/>
</svg>
